<svg id="Camada_1" data-name="Camada 1" xmlns="http://www.w3.org/2000/svg" viewBox="518 597.3 365.6 283.12">
  <path d="m843.84,758.45c0,14.02.16,27.8-.13,41.58-.06,2.75-1.09,6.29-2.99,7.99-2.8,2.5-6.24.65-9.24-1.25-23.76-15.1-47.52-30.2-71.42-45.09-2.54-1.58-5.89-2.36-8.92-2.56-5.94-.39-11.93-.12-18.62-.12,0,6.88.46,13.6-.12,20.22-.65,7.38-1.17,15.07-3.65,21.94-6.21,17.26-23.16,28.56-41.53,28.77-12.56.15-25.13-.06-37.69.13-2.28.03-4.85.75-6.78,1.95-23.99,15.02-47.88,30.2-71.8,45.33-.65.41-1.27.85-1.93,1.25-6.48,3.89-11.25,1.36-11.31-6.17-.1-12.57-.03-25.13-.03-37.7,0-1.66,0-3.31,0-5.17-13.81-2.11-24.27-8.95-31.88-20.09-5.63-8.24-7.72-17.46-7.66-27.37.13-22.07.58-44.15-.1-66.2-.76-24.36,18.92-47.64,47.66-47.54,32.48.11,64.97.03,97.46.02h6.01c0-7.96.38-15.59-.07-23.18-1.22-20.27,13.82-43.67,38.84-47.33,2.41-.35,4.87-.5,7.31-.51,40.61-.03,81.21-.05,121.82-.01,25.16.02,45.65,19.4,46.17,44.54.51,24.35.43,48.73,0,73.09-.35,19.76-15.59,37.73-34.82,42.33-1.46.35-2.91.72-4.56,1.13Zm-273.22,103.45c1.89-1.06,3.2-1.73,4.44-2.51,20.68-13.09,41.28-26.29,62.09-39.18,2.91-1.8,6.76-2.81,10.2-2.9,12.55-.34,25.12-.04,37.68-.16,20.45-.19,34.55-14.37,34.62-34.84.08-21.91.08-43.81-.05-65.72-.12-20.8-13.51-34.97-34.22-35.14-40.13-.34-80.27-.17-120.4-.07-22.46.05-34.68,18.46-34.09,35.27.8,22.49.12,45.03.24,67.55.09,17.12,12.53,30.55,29.57,32.27,8.46.85,9.91,2.43,9.91,10.9,0,11.29,0,22.58,0,34.53Zm260.06-70.94c.22-1.15.32-1.45.32-1.75.02-11.34.03-22.68.04-34.02,0-7.32,1.79-9.23,9.02-9.68,16.74-1.04,30.34-15.17,30.46-32.11.17-22.98.18-45.97-.01-68.95-.16-19.67-14.32-34.05-33.93-34.15-40.3-.21-80.59-.16-120.89-.01-15.53.06-29.32,9.47-32.17,23.79-2.2,11.05-1.49,22.68-2.08,34.34,2.56,0,3.94-.05,5.31,0,20.9.96,37.75,13.03,43.23,32.34,2.13,7.5,2.04,15.68,2.47,23.58.38,6.97.08,13.98.08,21.31,7.64,0,14.67-.26,21.68.12,3.05.16,6.4,1.01,8.97,2.59,14.34,8.8,28.49,17.93,42.7,26.93,8.1,5.13,16.21,10.24,24.8,15.68Z"/>
  <path d="m671.38,787.89c-1.64,1.65-3.14,4.12-5.32,5.13-3.17,1.47-6.02-.12-7.62-3.24-3.78-7.33-7.63-14.64-11.09-22.12-1.43-3.1-3.17-4.21-6.58-4.14-10.57.23-21.14.18-31.71.02-2.86-.05-4.33.88-5.56,3.47-3.41,7.18-7.11,14.21-10.77,21.27-2.55,4.92-5.72,6.37-9.48,4.49-3.69-1.85-4.45-5.45-1.99-10.29,12.51-24.67,24.97-49.36,37.71-73.9,1.15-2.21,4.21-4.78,6.36-4.75,2.15.02,5.11,2.65,6.27,4.89,12.7,24.57,25.11,49.29,37.58,73.98.68,1.35,1.19,2.79,2.2,5.21Zm-59.36-37.52h26.45c-4.47-8.81-8.64-17.04-13.2-26.04-4.61,9.06-8.75,17.2-13.25,26.04Z"/>
  <path d="m771.28,652.6c0-4.46-.06-8.27.02-12.08.09-4.59,2.55-7.3,6.46-7.28,3.9.02,6.25,2.7,6.33,7.36.07,3.8.01,7.6.01,11.99,7.76,0,15.21-.03,22.65.02,1.66.01,3.93-.3,4.86.61,1.88,1.85,4.07,4.36,4.24,6.74.21,2.93-2.33,5.87-5.65,5.3-7.42-1.27-10.34,2.37-12.59,8.76-2.06,5.85-5.54,11.2-8.65,17.25,6.49,4.36,13.19,8.85,19.87,13.37,1.52,1.03,3.09,2,4.48,3.19,2.89,2.48,3.96,5.47,1.72,8.92-2.09,3.21-5.57,3.86-9.26,1.47-6.93-4.49-13.72-9.19-20.58-13.8-1.13-.76-2.29-1.48-2.16-.76-6.21,5.43-12.42,10.85-18.62,16.29-4.4,3.86-7.67,4.02-10.66.5-2.75-3.24-1.98-6.36,2.06-10.26,5.03-4.85,9.86-9.92,15.12-15.25-5.34-3.63-10.01-6.75-14.62-9.96-4.45-3.1-5.49-6.6-3.09-9.99,2.26-3.2,6.38-3.54,10.57-.76,4.7,3.12,9.34,6.32,14.39,9.75,3.23-6.13,6.26-11.88,9.61-18.24-2.07-.15-3.34-.32-4.62-.32-13.02-.02-26.03,0-39.05-.02-4.55,0-7.53-2.4-7.66-6.04-.14-3.86,2.92-6.68,7.65-6.73,8.86-.09,17.71-.03,27.17-.03Z"/>
</svg>