<svg id="Camada_1" data-name="Camada 1" xmlns="http://www.w3.org/2000/svg" viewBox="0 0 515.67 461.41"><defs><style>.cls-1{fill:#24868f;}.cls-2{fill:#44a685;}.cls-3{fill:#f0b55a;}.cls-4{fill:#d55a25;}.cls-5{fill:#083d5a;}</style></defs><title>logo nova</title><polygon class="cls-1" points="59.14 124.75 110.57 93.5 139.45 146.11 121.65 159.56 59.14 124.75"/><polygon class="cls-1" points="143.01 144.13 154.88 140.97 153.3 69.36 112.3 92.7 143.01 144.13"/><polygon class="cls-2" points="157.35 66.4 159.89 131.14 193.38 90.79 157.35 66.4"/><path class="cls-2" d="M331.52,266.68c.79.27,20.31,12.66,20.31,12.66V296l-41.67,26.9L297,316.53v-7.39Z" transform="translate(-136.82 -174.51)"/><polygon class="cls-2" points="174.92 149.67 215.01 123.03 216.59 136.35 185.47 157.06 174.92 149.67"/><path class="cls-2" d="M297,238.46l37.45,21.63,19-23.21s-7.12-8.7,2.37-15l-8.7-15.56Z" transform="translate(-136.82 -174.51)"/><path class="cls-2" d="M354.25,237.39s6.73,4.2,11.47-.54l8.79,20.86-18.73,15.56-19.51-11.6Z" transform="translate(-136.82 -174.51)"/><path class="cls-2" d="M359,220.79,349.72,205l39-22.68v69.89l-11.6,4.08-10.29-21S373.19,222.64,359,220.79Z" transform="translate(-136.82 -174.51)"/><path class="cls-2" d="M392.58,182.29c-.4.52-.8,70.55-.8,70.55s8.18,3,11.35,4.87l34.54-49.18Z" transform="translate(-136.82 -174.51)"/><polygon class="cls-2" points="268.29 84.26 302.97 35.34 346.97 62.24 286.62 98.77 268.29 84.26"/><polygon class="cls-2" points="288.59 104.57 288.59 119.21 337.45 148.35 349.91 143.54 349.91 68.57 288.59 104.57"/><polygon class="cls-2" points="288.59 121.19 336.26 149.28 322.62 158.57 288.59 137.01 288.59 121.19"/><polygon class="cls-3" points="354.79 143.34 354.79 67.06 400.68 92.18 371.14 149.67 354.79 143.34"/><polygon class="cls-3" points="386.97 163.12 372.07 150.33 402.13 92.97 450.79 122.11 386.97 163.12"/><path class="cls-4" d="M492.27,392.05s18.1-.79,30.56-18.29l27.1,16.81L507.7,430.82a24.31,24.31,0,0,0-15.43-5.34Z" transform="translate(-136.82 -174.51)"/><path class="cls-4" d="M551.71,392c-.3.4-42.33,40.16-42.33,40.16l12.71,11.72,61.42-34.35Z" transform="translate(-136.82 -174.51)"/><path class="cls-4" d="M466.29,385.63s13.19,9.36,21.1,6.39v33.3s-11.08.69-17.14,5.27c0,0-22.69-17.18-22.56-17.58S466.29,385.63,466.29,385.63Z" transform="translate(-136.82 -174.51)"/><path class="cls-4" d="M422.38,392l24.53,20.38,19-28s-10.28-8.7-12.39-12.13Z" transform="translate(-136.82 -174.51)"/><path class="cls-4" d="M395.87,407.78c.4-.13,25.72-14.64,25.72-14.64L446.28,413l-12,17.42Z" transform="translate(-136.82 -174.51)"/><path class="cls-4" d="M447.07,413.48,435.4,431s21,12.92,21.4,12.79S461,437,468.4,431.29Z" transform="translate(-136.82 -174.51)"/><path class="cls-4" d="M522.73,446.81a25.66,25.66,0,0,1,2,11.08h61.71s.4-46.29,0-46.09S522.73,446.81,522.73,446.81Z" transform="translate(-136.82 -174.51)"/><path class="cls-4" d="M525.94,460.46s.94,11-3.21,20.51l65,37.71-1.9-58.22Z" transform="translate(-136.82 -174.51)"/><path class="cls-2" d="M324.4,335.25c-1.19-1.43,32.44-19.51,32.44-19.51l25,15.1-16,21.36s-10-4.29-12.4,5.73H330.2S328.81,340.56,324.4,335.25Z" transform="translate(-136.82 -174.51)"/><path class="cls-2" d="M330.2,359.78h23.21s.79,5.27,4,5.8l-9,13.45-18.2-12.39Z" transform="translate(-136.82 -174.51)"/><path class="cls-2" d="M349.45,380l8.71-13.72s9.1,1.32,9.76-6.46l20.7-.66s.26,44.7,0,44.57S349.45,380,349.45,380Z" transform="translate(-136.82 -174.51)"/><path class="cls-2" d="M366.5,352.91s2.21,4.23,1.55,6.21l20.52-1.19,1-26.37-6.58-.33Z" transform="translate(-136.82 -174.51)"/><path class="cls-2" d="M392.71,354.11l-.66-22.55,27.56-17.18,35.6,23.25s-3.56,4.88-3,14.57Z" transform="translate(-136.82 -174.51)"/><path class="cls-2" d="M393.1,403.69V355.43l58.68-2.38s-.26,13.19.66,15.43Z" transform="translate(-136.82 -174.51)"/><path class="cls-5" d="M422.51,542.29s3.43-3.43,4.22-18.2l49.71-26.9s5.7,3.52,10.95,3.16v76.81Z" transform="translate(-136.82 -174.51)"/><path class="cls-5" d="M426.47,522.24s2.37-11.08-5.94-19.51l36.79-21.1s5,11.34,16.62,14.24Z" transform="translate(-136.82 -174.51)"/><path class="cls-5" d="M434.38,434.85S455,446.81,455,448.4s-5.28,16.87,0,29.27l-38.51,22.68s-2.63-5-10-7.12Z" transform="translate(-136.82 -174.51)"/><path class="cls-5" d="M392.18,412.4c1.06,1.71,38.51,22.45,38.51,22.45l-25.85,57.33a14.8,14.8,0,0,0-12.66-2.91Z" transform="translate(-136.82 -174.51)"/><path class="cls-5" d="M349.45,436.53c.53-.53,39.29-24.73,39.29-24.73s.77,76.95,0,77.21-7.11-1.05-15.81,3.17Z" transform="translate(-136.82 -174.51)"/><path class="cls-5" d="M327.56,450l20.05-12.66,24,54.86a21.37,21.37,0,0,0-7.12,6.85l-36.93-21.36S332.31,460.53,327.56,450Z" transform="translate(-136.82 -174.51)"/><path class="cls-5" d="M406.42,557.85S417,554.73,420.53,547l61.58,35.08-49.05,29.27Z" transform="translate(-136.82 -174.51)"/><path class="cls-5" d="M392.18,563.12s9.45-1.85,12.92-4l25.59,52.22-38.51,23.48Z" transform="translate(-136.82 -174.51)"/><path class="cls-5" d="M376.88,560.75s6.23,3,12.2,2.37v72.79L351.56,614Z" transform="translate(-136.82 -174.51)"/><path class="cls-5" d="M359.48,547s5.54,10,15,12.13L349.59,613l-51-30.07Z" transform="translate(-136.82 -174.51)"/><path class="cls-5" d="M357.63,544.13c-1.32-1-6.86-4.75-6.07-19.78l-49.58-24h-5.8s-.79,80.44,0,78.86S357.63,544.13,357.63,544.13Z" transform="translate(-136.82 -174.51)"/><path class="cls-5" d="M304.09,499c1.85-.79,14.68-5.54,22.64-15.82,0,0,34.07,16.61,33.54,18.72s-9,10-7.39,20.31Z" transform="translate(-136.82 -174.51)"/><path class="cls-1" d="M308.31,387s10.82-5.54,17.14-16.36l59.08,37.19-38.11,24Z" transform="translate(-136.82 -174.51)"/><path class="cls-1" d="M295.39,390.9s6.39.92,11.08-2.64c0,0,37.18,44.84,37.31,44.84s-19.38,12.39-19.38,12.39-7.91-19.25-29-18.72Z" transform="translate(-136.82 -174.51)"/><path class="cls-1" d="M196,302.81l61.45,34s-4,7.38-3.16,19L196,368.22Z" transform="translate(-136.82 -174.51)"/><path class="cls-1" d="M254.05,357.29a16.11,16.11,0,0,0,3.36,10.93L196,407.52V370.59Z" transform="translate(-136.82 -174.51)"/><path class="cls-1" d="M201.24,411.8s59.86,34.49,60.65,33.69S268,428.09,290.64,427V392s-25.05-5.28-29.8-18.47Z" transform="translate(-136.82 -174.51)"/><path class="cls-5" d="M259,450s-6.06,12.92,0,26.64c0,0-63.29,39.82-63,38.76s0-100.48,0-100.48Z" transform="translate(-136.82 -174.51)"/><circle class="cls-5" cx="8.07" cy="278.08" r="8.07"/><circle class="cls-5" cx="35.8" cy="304.85" r="8.07"/><circle class="cls-5" cx="24.12" cy="225.07" r="16.85"/><circle class="cls-1" cx="24.12" cy="151.55" r="13.55"/><circle class="cls-1" cx="64.68" cy="84.11" r="8.07"/><circle class="cls-1" cx="117.65" cy="38.36" r="20.32"/><circle class="cls-2" cx="174.07" cy="18.04" r="8.07"/><circle class="cls-2" cx="313.12" cy="9.03" r="9.03"/><circle class="cls-3" cx="401.95" cy="40.55" r="24.86"/><circle class="cls-3" cx="460.02" cy="68.51" r="8.07"/><circle class="cls-3" cx="480.26" cy="156.42" r="8.07"/><circle class="cls-3" cx="491.14" cy="217.52" r="24.53"/><circle class="cls-4" cx="485.21" cy="284.67" r="13.95"/><path class="cls-1" d="M290.93,321.41a31.93,31.93,0,1,0,31.93,31.93A31.93,31.93,0,0,0,290.93,321.41Zm0,52.81a20.77,20.77,0,1,1,20.77-20.77A20.77,20.77,0,0,1,290.89,374.22Z" transform="translate(-136.82 -174.51)"/><path class="cls-2" d="M389.28,260.09A31.93,31.93,0,1,0,421.21,292,31.92,31.92,0,0,0,389.28,260.09Zm0,52.81A20.77,20.77,0,1,1,410,292.13,20.77,20.77,0,0,1,389.24,312.9Z" transform="translate(-136.82 -174.51)"/><path class="cls-3" d="M488.58,324.07A31.93,31.93,0,1,0,520.51,356,31.93,31.93,0,0,0,488.58,324.07Zm0,52.81a20.77,20.77,0,1,1,20.77-20.77A20.77,20.77,0,0,1,488.54,376.88Z" transform="translate(-136.82 -174.51)"/><path class="cls-5" d="M293.28,432.15a31.94,31.94,0,1,0,31.93,31.94A31.93,31.93,0,0,0,293.28,432.15Zm0,52.82A20.77,20.77,0,1,1,314,464.2,20.77,20.77,0,0,1,293.24,485Z" transform="translate(-136.82 -174.51)"/><path class="cls-5" d="M390.07,493.74A31.93,31.93,0,1,0,422,525.67,31.92,31.92,0,0,0,390.07,493.74Zm0,52.81a20.77,20.77,0,1,1,20.77-20.77A20.77,20.77,0,0,1,390,546.55Z" transform="translate(-136.82 -174.51)"/><path class="cls-4" d="M489.43,430.59a31.94,31.94,0,1,0,31.94,31.94A31.94,31.94,0,0,0,489.43,430.59Zm0,52.82a20.77,20.77,0,1,1,20.77-20.77A20.77,20.77,0,0,1,489.4,483.41Z" transform="translate(-136.82 -174.51)"/><path class="cls-5" d="M260.58,481.36,196,522.24l96,55.65V500.35C267.7,498,260.58,481.36,260.58,481.36Zm-3.17,52.49a8.07,8.07,0,1,1,8.07-8.07A8.07,8.07,0,0,1,257.41,533.85Z" transform="translate(-136.82 -174.51)"/><path class="cls-4" d="M521.1,483.21c-11.72,12.86-30,17.21-30,17.21l1,76.74,95.71-56.37Zm7.48,40.27a8.07,8.07,0,1,1,8.07-8.07A8.07,8.07,0,0,1,528.58,523.48Z" transform="translate(-136.82 -174.51)"/><path class="cls-3" d="M525.3,339.14l-.92,26,63.69,37.58V298.4Zm39,35.08a8.07,8.07,0,1,1,8.07-8.07A8.07,8.07,0,0,1,564.29,374.22Z" transform="translate(-136.82 -174.51)"/></svg>